<svg width="170" height="170" viewBox="0 0 170 170" fill="none" xmlns="http://www.w3.org/2000/svg">
<rect width="170" height="170" fill="#9B5150"/>
<path d="M38.8039 53.808H32.1319L31.0279 57H27.4999L33.5239 40.224H37.4359L43.4599 57H39.9079L38.8039 53.808ZM37.8919 51.12L35.4679 44.112L33.0439 51.12H37.8919ZM49.3116 54.336H54.8316V57H45.9516V40.248H49.3116V54.336ZM67.4793 53.808H60.8073L59.7033 57H56.1753L62.1993 40.224H66.1113L72.1353 57H68.5833L67.4793 53.808ZM66.5673 51.12L64.1433 44.112L61.7193 51.12H66.5673ZM80.4109 57.168C79.2429 57.168 78.1869 56.968 77.2429 56.568C76.3149 56.168 75.5789 55.592 75.0349 54.84C74.4909 54.088 74.2109 53.2 74.1949 52.176H77.7949C77.8429 52.864 78.0829 53.408 78.5149 53.808C78.9629 54.208 79.5709 54.408 80.3389 54.408C81.1229 54.408 81.7389 54.224 82.1869 53.856C82.6349 53.472 82.8589 52.976 82.8589 52.368C82.8589 51.872 82.7069 51.464 82.4029 51.144C82.0989 50.824 81.7149 50.576 81.2509 50.4C80.8029 50.208 80.1789 50 79.3789 49.776C78.2909 49.456 77.4029 49.144 76.7149 48.84C76.0429 48.52 75.4589 48.048 74.9629 47.424C74.4829 46.784 74.2429 45.936 74.2429 44.88C74.2429 43.888 74.4909 43.024 74.9869 42.288C75.4829 41.552 76.1789 40.992 77.0749 40.608C77.9709 40.208 78.9949 40.008 80.1469 40.008C81.8749 40.008 83.2749 40.432 84.3469 41.28C85.4349 42.112 86.0349 43.28 86.1469 44.784H82.4509C82.4189 44.208 82.1709 43.736 81.7069 43.368C81.2589 42.984 80.6589 42.792 79.9069 42.792C79.2509 42.792 78.7229 42.96 78.3229 43.296C77.9389 43.632 77.7469 44.12 77.7469 44.76C77.7469 45.208 77.8909 45.584 78.1789 45.888C78.4829 46.176 78.8509 46.416 79.2829 46.608C79.7309 46.784 80.3549 46.992 81.1549 47.232C82.2429 47.552 83.1309 47.872 83.8189 48.192C84.5069 48.512 85.0989 48.992 85.5949 49.632C86.0909 50.272 86.3389 51.112 86.3389 52.152C86.3389 53.048 86.1069 53.88 85.6429 54.648C85.1789 55.416 84.4989 56.032 83.6029 56.496C82.7069 56.944 81.6429 57.168 80.4109 57.168ZM98.9479 57L92.8519 49.536V57H89.4919V40.248H92.8519V47.76L98.9479 40.248H103.004L96.0919 48.552L103.196 57H98.9479ZM115.918 53.808H109.246L108.142 57H104.614L110.638 40.224H114.55L120.574 57H117.022L115.918 53.808ZM115.006 51.12L112.582 44.112L110.158 51.12H115.006ZM123.738 40.248H127.266L124.674 46.296H122.37L123.738 40.248ZM135.699 57.168C134.531 57.168 133.475 56.968 132.531 56.568C131.603 56.168 130.867 55.592 130.323 54.84C129.779 54.088 129.499 53.2 129.483 52.176H133.083C133.131 52.864 133.371 53.408 133.803 53.808C134.251 54.208 134.859 54.408 135.627 54.408C136.411 54.408 137.027 54.224 137.475 53.856C137.923 53.472 138.147 52.976 138.147 52.368C138.147 51.872 137.995 51.464 137.691 51.144C137.387 50.824 137.003 50.576 136.539 50.4C136.091 50.208 135.467 50 134.667 49.776C133.579 49.456 132.691 49.144 132.003 48.84C131.331 48.52 130.747 48.048 130.251 47.424C129.771 46.784 129.531 45.936 129.531 44.88C129.531 43.888 129.779 43.024 130.275 42.288C130.771 41.552 131.467 40.992 132.363 40.608C133.259 40.208 134.283 40.008 135.435 40.008C137.163 40.008 138.563 40.432 139.635 41.28C140.723 42.112 141.323 43.28 141.435 44.784H137.739C137.707 44.208 137.459 43.736 136.995 43.368C136.547 42.984 135.947 42.792 135.195 42.792C134.539 42.792 134.011 42.96 133.611 43.296C133.227 43.632 133.035 44.12 133.035 44.76C133.035 45.208 133.179 45.584 133.467 45.888C133.771 46.176 134.139 46.416 134.571 46.608C135.019 46.784 135.643 46.992 136.443 47.232C137.531 47.552 138.419 47.872 139.107 48.192C139.795 48.512 140.387 48.992 140.883 49.632C141.379 50.272 141.627 51.112 141.627 52.152C141.627 53.048 141.395 53.88 140.931 54.648C140.467 55.416 139.787 56.032 138.891 56.496C137.995 56.944 136.931 57.168 135.699 57.168ZM62.5795 81.432C62.5795 82.328 62.3635 83.168 61.9315 83.952C61.5155 84.736 60.8515 85.368 59.9395 85.848C59.0435 86.328 57.9075 86.568 56.5315 86.568H53.7235V93H50.3635V76.248H56.5315C57.8275 76.248 58.9315 76.472 59.8435 76.92C60.7555 77.368 61.4355 77.984 61.8835 78.768C62.3475 79.552 62.5795 80.44 62.5795 81.432ZM56.3875 83.856C57.3155 83.856 58.0035 83.648 58.4515 83.232C58.8995 82.8 59.1235 82.2 59.1235 81.432C59.1235 79.8 58.2115 78.984 56.3875 78.984H53.7235V83.856H56.3875ZM72.9811 93.168C71.4131 93.168 69.9731 92.8 68.6611 92.064C67.3491 91.328 66.3091 90.312 65.5411 89.016C64.7731 87.704 64.3891 86.224 64.3891 84.576C64.3891 82.944 64.7731 81.48 65.5411 80.184C66.3091 78.872 67.3491 77.848 68.6611 77.112C69.9731 76.376 71.4131 76.008 72.9811 76.008C74.5651 76.008 76.0051 76.376 77.3011 77.112C78.6131 77.848 79.6451 78.872 80.3971 80.184C81.1651 81.48 81.5491 82.944 81.5491 84.576C81.5491 86.224 81.1651 87.704 80.3971 89.016C79.6451 90.312 78.6131 91.328 77.3011 92.064C75.9891 92.8 74.5491 93.168 72.9811 93.168ZM72.9811 90.168C73.9891 90.168 74.8771 89.944 75.6451 89.496C76.4131 89.032 77.0131 88.376 77.4451 87.528C77.8771 86.68 78.0931 85.696 78.0931 84.576C78.0931 83.456 77.8771 82.48 77.4451 81.648C77.0131 80.8 76.4131 80.152 75.6451 79.704C74.8771 79.256 73.9891 79.032 72.9811 79.032C71.9731 79.032 71.0771 79.256 70.2931 79.704C69.5251 80.152 68.9251 80.8 68.4931 81.648C68.0611 82.48 67.8451 83.456 67.8451 84.576C67.8451 85.696 68.0611 86.68 68.4931 87.528C68.9251 88.376 69.5251 89.032 70.2931 89.496C71.0771 89.944 71.9731 90.168 72.9811 90.168ZM87.6488 76.248V93H84.2888V76.248H87.6488ZM105.537 93H102.177L94.5685 81.504V93H91.2085V76.224H94.5685L102.177 87.744V76.224H105.537V93ZM120.497 76.248V78.96H116.033V93H112.673V78.96H108.209V76.248H120.497ZM47.4961 129.168C45.9281 129.168 44.4881 128.8 43.1761 128.064C41.8641 127.328 40.8241 126.312 40.0561 125.016C39.2881 123.704 38.9041 122.224 38.9041 120.576C38.9041 118.944 39.2881 117.48 40.0561 116.184C40.8241 114.872 41.8641 113.848 43.1761 113.112C44.4881 112.376 45.9281 112.008 47.4961 112.008C49.0801 112.008 50.5201 112.376 51.8161 113.112C53.1281 113.848 54.1601 114.872 54.9121 116.184C55.6801 117.48 56.0641 118.944 56.0641 120.576C56.0641 122.224 55.6801 123.704 54.9121 125.016C54.1601 126.312 53.1281 127.328 51.8161 128.064C50.5041 128.8 49.0641 129.168 47.4961 129.168ZM47.4961 126.168C48.5041 126.168 49.3921 125.944 50.1601 125.496C50.9281 125.032 51.5281 124.376 51.9601 123.528C52.3921 122.68 52.6081 121.696 52.6081 120.576C52.6081 119.456 52.3921 118.48 51.9601 117.648C51.5281 116.8 50.9281 116.152 50.1601 115.704C49.3921 115.256 48.5041 115.032 47.4961 115.032C46.4881 115.032 45.5921 115.256 44.8081 115.704C44.0401 116.152 43.4401 116.8 43.0081 117.648C42.5761 118.48 42.3601 119.456 42.3601 120.576C42.3601 121.696 42.5761 122.68 43.0081 123.528C43.4401 124.376 44.0401 125.032 44.8081 125.496C45.5921 125.944 46.4881 126.168 47.4961 126.168ZM69.1478 112.248V114.96H62.1638V119.256H67.5158V121.92H62.1638V129H58.8038V112.248H69.1478ZM92.7771 112.248L86.6331 129H82.5531L76.4091 112.248H80.0091L84.6171 125.568L89.2011 112.248H92.7771ZM98.3916 112.248V129H95.0316V112.248H98.3916ZM105.311 114.96V119.16H110.951V121.824H105.311V126.264H111.671V129H101.951V112.224H111.671V114.96H105.311ZM137.357 112.248L132.677 129H128.717L125.573 117.072L122.285 129L118.349 129.024L113.837 112.248H117.437L120.389 125.256L123.797 112.248H127.541L130.757 125.184L133.733 112.248H137.357Z" fill="white"/>
</svg>
