<?xml version="1.0" standalone="no"?>
<!DOCTYPE svg PUBLIC "-//W3C//DTD SVG 20010904//EN"
 "http://www.w3.org/TR/2001/REC-SVG-20010904/DTD/svg10.dtd">
<svg version="1.0" xmlns="http://www.w3.org/2000/svg"
 width="613.000000pt" height="407.000000pt" viewBox="0 0 613.000000 407.000000"
 preserveAspectRatio="xMidYMid meet">
<metadata>
Created by potrace 1.16, written by Peter Selinger 2001-2019
</metadata>
<g transform="translate(0.000000,407.000000) scale(0.100000,-0.100000)"
fill="#000000" stroke="none">
<path d="M3155 3964 c-252 -35 -416 -164 -506 -401 -9 -24 -11 -162 -4 -368 0
-27 9 -74 18 -104 9 -30 17 -81 17 -112 0 -32 3 -60 8 -62 4 -3 5 15 3 39 -3
48 -6 47 60 22 20 -7 35 -5 68 13 50 26 62 45 63 108 1 35 -4 56 -19 74 -11
15 -22 24 -25 22 -3 -3 -13 4 -23 15 -10 11 -24 20 -31 20 -17 0 -34 32 -38
68 -1 15 -7 26 -12 25 -5 -1 -19 16 -31 38 l-22 39 27 17 c15 9 33 23 40 32
10 13 12 12 12 -6 0 -15 5 -20 18 -18 9 2 17 4 17 5 0 8 71 7 91 -1 20 -7 29
-7 35 2 6 10 11 10 22 1 7 -7 17 -9 20 -5 4 3 13 0 22 -7 11 -9 18 -10 28 -1
8 6 16 9 19 6 3 -3 13 4 23 15 10 11 26 20 35 20 9 0 25 9 35 20 10 11 20 18
23 15 2 -2 17 2 33 10 38 20 48 19 54 -8 5 -19 13 -23 42 -23 20 0 38 -5 41
-12 6 -18 20 -15 25 6 3 9 5 -2 6 -26 1 -25 10 -58 24 -80 12 -20 28 -49 34
-64 7 -15 24 -35 38 -44 46 -30 63 -79 57 -163 l-5 -73 24 7 c13 4 24 8 25 9
0 0 22 29 49 63 47 62 95 90 130 77 8 -3 21 6 31 21 15 23 16 44 10 177 -8
176 -15 216 -60 312 -35 75 -115 167 -184 209 -74 46 -270 84 -367 71z"/>
<path d="M3031 3195 c-33 -8 -65 -10 -82 -5 -21 6 -29 4 -34 -7 -7 -20 22 -53
46 -53 21 0 30 -12 38 -54 5 -21 20 -40 48 -60 34 -24 47 -27 77 -22 20 4 36
11 36 16 0 18 42 58 67 64 13 4 21 11 18 16 -9 15 -41 12 -55 -5 -7 -8 -19
-15 -26 -15 -8 0 -14 7 -14 15 0 9 9 15 23 15 12 0 29 5 37 11 11 8 9 9 -10 3
-14 -3 -21 -3 -17 2 4 5 -9 13 -29 19 -61 17 -54 35 19 51 21 5 19 7 -8 14
-43 11 -73 10 -134 -5z"/>
<path d="M3018 2856 c-13 -17 -19 -19 -29 -8 -19 18 -47 15 -61 -8 -16 -26
-49 -26 -71 1 -24 28 -43 19 -39 -17 3 -27 -1 -32 -31 -41 -28 -8 -37 -7 -57
9 -12 10 -25 17 -27 15 -2 -3 6 -30 17 -60 16 -43 35 -69 78 -107 31 -27 60
-50 65 -50 5 0 15 -7 23 -15 16 -16 84 -21 84 -7 0 16 -49 54 -60 47 -8 -5
-11 -1 -8 11 2 14 15 20 50 24 56 7 69 16 38 28 l-24 9 27 7 c16 3 25 11 22
15 -5 10 37 2 45 -8 9 -11 81 -33 87 -27 3 3 -7 27 -23 53 -34 55 -64 69 -64
29 0 -24 -3 -26 -45 -26 -41 0 -45 2 -50 28 -4 15 -11 35 -17 46 -13 25 7 38
49 30 26 -5 32 -2 38 16 9 30 3 32 -17 6z"/>
<path d="M4757 2674 c-3 -16 -9 -85 -12 -154 -8 -153 -29 -258 -61 -301 -28
-39 -30 -72 -7 -125 l17 -39 6 35 c10 50 21 80 31 80 5 0 10 -10 10 -22 1 -17
2 -19 6 -5 2 9 11 17 18 17 7 0 19 16 25 35 6 19 15 35 20 35 9 0 3 69 -10
115 -10 32 -23 222 -21 290 1 52 -15 80 -22 39z"/>
<path d="M3160 2553 c-57 -19 -90 -24 -137 -21 l-62 4 17 -31 c22 -38 107 -96
192 -131 48 -20 84 -27 135 -28 l70 -1 7 65 c4 36 9 82 13 103 7 52 -10 47
-37 -10 -16 -33 -32 -51 -51 -57 -38 -13 -45 -2 -49 71 -2 35 -7 62 -13 62 -5
-1 -44 -12 -85 -26z"/>
<path d="M2415 2005 c-8 -11 -42 -16 -147 -21 -121 -6 -138 -9 -143 -25 -12
-37 2 -41 124 -34 l117 7 39 -43 c22 -25 34 -44 27 -47 -17 -5 -15 -32 2 -32
36 0 23 54 -23 92 -31 27 -31 38 1 38 23 0 30 17 20 53 -6 22 -9 24 -17 12z"/>
<path d="M2950 1988 c-12 -28 -60 -203 -60 -217 0 -6 11 -11 24 -11 26 0 40
23 31 51 -5 14 -1 19 14 19 18 0 20 -4 14 -31 -6 -29 -4 -30 23 -27 22 2 28 8
27 23 -20 178 -27 215 -45 215 -10 0 -23 -10 -28 -22z"/>
<path d="M3073 1919 c-1 -51 -7 -97 -13 -103 -5 -5 -10 -18 -10 -28 0 -13 8
-18 31 -18 31 0 31 1 26 38 -10 61 9 73 25 16 10 -38 19 -50 36 -52 27 -4 28
12 6 57 -15 30 -15 34 1 50 12 14 15 33 13 72 l-3 54 -55 3 -55 3 -2 -92z"/>
<path d="M3234 1983 c3 -16 14 -69 23 -120 15 -87 29 -113 53 -98 4 3 18 48
31 100 13 52 27 95 31 95 4 0 8 9 8 20 0 15 -7 20 -29 20 -27 0 -28 -2 -34
-56 -10 -93 -29 -90 -29 5 l0 61 -30 0 c-28 0 -30 -2 -24 -27z"/>
<path d="M3412 1930 c-7 -33 -20 -83 -29 -110 -9 -28 -14 -52 -12 -54 2 -3 17
-8 32 -11 28 -7 29 -6 25 26 -3 29 0 34 20 37 21 3 23 1 17 -31 -6 -32 -5 -35
22 -40 15 -3 30 -3 32 -1 2 2 -7 57 -20 121 -23 111 -25 118 -49 121 -24 3
-27 -1 -38 -58z"/>
<path d="M2830 1953 c4 -56 0 -73 -16 -73 -14 0 -15 7 -10 45 7 46 1 54 -26
33 -12 -10 -17 -38 -20 -120 -3 -60 -2 -108 1 -108 3 0 16 3 29 6 20 6 22 12
20 52 -2 29 1 46 10 49 8 3 12 -9 12 -41 0 -32 4 -46 14 -46 10 0 13 22 15 91
1 50 6 99 11 109 14 27 13 30 -16 30 -22 0 -25 -4 -24 -27z"/>
<path d="M3555 1949 c14 -43 17 -156 5 -179 -13 -25 -1 -40 33 -40 16 0 17 6
12 44 -9 56 10 71 24 19 6 -21 11 -45 11 -54 0 -17 28 -34 38 -24 3 3 -1 23
-8 46 -11 32 -11 45 -2 60 17 26 15 114 -2 128 -8 6 -38 14 -67 18 -52 6 -52
6 -44 -18z"/>
<path d="M3722 1847 c-2 -50 -4 -105 -5 -121 -2 -25 3 -30 34 -41 20 -7 41
-10 46 -6 12 7 33 183 26 211 -5 17 -28 30 -78 44 -19 5 -20 0 -23 -87z"/>
<path d="M704 1861 c-47 -29 -71 -97 -56 -162 16 -69 62 -132 115 -158 52 -25
78 -26 118 -6 112 58 80 258 -52 325 -48 25 -85 25 -125 1z m113 -16 c75 -31
113 -92 113 -179 0 -44 -5 -60 -25 -84 -47 -56 -123 -51 -183 11 -78 80 -82
203 -8 248 38 23 56 24 103 4z"/>
<path d="M4655 1750 c-28 -30 -33 -31 -85 -26 -79 8 -180 -16 -287 -70 -51
-26 -93 -50 -93 -54 0 -5 -11 -21 -24 -37 -23 -27 -23 -33 -18 -150 2 -68 8
-123 12 -123 16 0 159 108 204 154 27 28 59 72 71 99 13 26 25 47 28 45 3 -2
13 4 23 13 28 24 90 42 169 48 69 6 70 7 74 36 l3 30 13 -35 13 -35 1 38 c1
21 -4 47 -9 57 -9 16 -8 19 7 13 13 -4 15 -3 8 5 -5 6 -26 13 -45 17 -30 5
-39 2 -65 -25z"/>
<path d="M2925 1502 c-12 -8 -12 -49 0 -75 5 -12 3 -23 -5 -30 -10 -9 -11 -9
-6 1 4 6 2 12 -3 12 -15 0 -14 -16 2 -32 18 -20 19 -38 2 -38 -17 0 -20 -16
-5 -25 6 -4 10 -14 9 -23 -3 -30 1 -37 11 -22 7 12 10 8 10 -15 0 -21 -3 -26
-9 -16 -7 10 -10 10 -16 1 -5 -8 -1 -16 8 -21 10 -6 13 -17 9 -31 -3 -13 -1
-19 5 -15 7 5 9 0 6 -13 -3 -11 0 -33 5 -50 6 -16 10 -30 9 -30 -13 0 -170 30
-176 34 -14 9 -303 54 -418 65 -62 7 -133 15 -158 20 -25 5 -47 6 -48 2 -2 -3
0 -109 4 -236 4 -126 8 -258 8 -292 1 -61 2 -63 28 -63 14 0 87 33 162 74 75
40 267 140 428 221 227 116 289 151 279 160 -6 7 -26 10 -44 7 -30 -4 -41 6
-25 22 4 3 8 16 10 28 3 21 3 21 -17 3 -24 -22 -47 -8 -35 22 4 10 10 27 12
37 2 11 6 22 10 25 3 3 3 -4 0 -17 -4 -17 -2 -22 8 -18 8 3 17 -3 20 -15 4
-10 11 -19 17 -19 7 0 7 -5 -1 -14 -9 -11 -7 -15 11 -21 35 -12 52 -12 61 0 5
6 7 4 4 -5 -2 -8 -11 -14 -18 -12 -8 2 -6 -5 6 -18 l20 -22 3 22 c3 18 6 20
12 9 5 -7 11 -11 15 -8 3 3 -4 18 -16 33 -12 15 -35 51 -51 79 -16 29 -27 43
-23 31 4 -14 1 -21 -10 -21 -8 0 -15 4 -15 9 0 5 -5 6 -10 3 -7 -4 -9 3 -6 19
5 27 -9 45 -17 24 -3 -8 -6 -6 -6 5 -1 9 5 17 12 18 6 0 2 5 -10 11 -13 6 -23
16 -23 22 0 6 -5 4 -11 -4 -9 -13 -10 -13 -6 0 2 8 11 14 21 12 9 -2 16 3 16
10 0 9 3 9 10 -2 8 -12 10 -10 8 9 -2 13 3 26 10 28 8 3 12 -9 13 -39 0 -23 4
-52 9 -63 9 -21 6 32 -7 105 -4 19 -6 38 -5 43 1 4 -2 8 -8 8 -5 1 -14 3 -20
4 -5 1 -13 3 -17 4 -5 1 -1 7 8 14 24 19 31 47 13 47 -10 0 -14 -6 -11 -15 4
-8 1 -17 -5 -21 -7 -5 -8 -2 -3 7 7 11 5 11 -10 -1 -11 -9 -16 -10 -11 -2 4 7
1 12 -8 12 -23 0 -19 17 5 23 13 4 18 10 14 17 -6 9 -9 9 -15 0 -5 -8 -9 -9
-11 -1 -2 5 -8 7 -14 3z m-412 -377 c109 -22 319 -55 349 -55 56 0 35 -21 -69
-71 l-108 -51 -117 17 c-122 17 -254 52 -208 54 l25 2 -23 13 -24 13 27 17
c32 21 28 28 -24 33 -35 3 -40 2 -36 -16 4 -23 -17 -33 -51 -25 -33 8 -21 21
50 54 70 33 109 36 209 15z"/>
</g>
</svg>
