<?xml version="1.0" standalone="no"?>
<!DOCTYPE svg PUBLIC "-//W3C//DTD SVG 20010904//EN"
 "http://www.w3.org/TR/2001/REC-SVG-20010904/DTD/svg10.dtd">
<svg version="1.0" xmlns="http://www.w3.org/2000/svg"
 width="2400.000000pt" height="1600.000000pt" viewBox="0 0 2400.000000 1600.000000"
 preserveAspectRatio="xMidYMid meet">
<metadata>
Created by potrace 1.16, written by Peter Selinger 2001-2019
</metadata>
<g transform="translate(0.000000,1600.000000) scale(0.100000,-0.100000)"
fill="#000000" stroke="none">
<path d="M17473 4908 c-18 -5 -33 -13 -33 -19 0 -6 -4 -8 -9 -4 -18 11 -80
-37 -114 -88 -19 -29 -157 -277 -307 -552 -150 -275 -298 -547 -330 -605 -84
-152 -291 -533 -337 -620 -35 -65 -171 -315 -253 -465 -32 -58 -149 -273 -195
-360 -18 -33 -70 -130 -116 -215 -46 -85 -93 -165 -106 -178 -15 -15 -23 -35
-23 -57 l0 -35 -77 1 c-43 1 -127 5 -188 9 -106 6 -107 7 -32 8 l78 2 -3 35
c-3 42 -16 48 -103 43 l-60 -3 2 -41 2 -41 -37 3 c-20 2 -183 8 -362 14 -179
5 -390 12 -470 15 -199 7 -673 23 -915 30 -548 18 -635 21 -640 27 -3 3 -7 14
-8 25 0 11 -6 25 -13 31 -10 9 -14 2 -19 -28 -6 -38 -9 -40 -43 -41 -21 -1
-41 -1 -46 0 -4 1 -13 -2 -20 -7 -6 -6 -90 -13 -186 -17 -96 -4 -184 -9 -195
-10 -11 -2 -112 -9 -225 -15 -113 -7 -208 -14 -211 -15 -3 -2 -36 -5 -75 -6
-38 -1 -76 -5 -84 -10 -8 -4 -73 -16 -145 -27 -98 -16 -132 -25 -142 -39 -8
-10 -19 -25 -26 -33 -14 -17 -40 -76 -59 -135 -7 -22 -16 -42 -19 -45 -3 -3
-18 -52 -33 -110 -14 -58 -30 -112 -35 -120 -5 -9 -20 -65 -35 -125 -15 -61
-31 -119 -36 -130 -5 -11 -19 -63 -30 -115 -12 -52 -26 -108 -32 -125 -5 -16
-23 -82 -38 -145 -52 -209 -99 -394 -113 -450 -8 -30 -18 -70 -21 -87 l-5 -33
6524 0 6525 0 0 949 0 948 -116 7 c-64 4 -434 7 -823 7 -629 -1 -826 5 -976
25 -22 3 -43 8 -47 10 -5 3 -8 51 -8 107 0 123 -15 114 -25 -15 -4 -48 -11
-91 -16 -94 -5 -3 -30 -2 -56 2 -40 6 -44 9 -30 19 21 15 22 41 1 49 -9 3 -45
6 -80 6 -35 0 -64 4 -64 9 0 13 21 18 102 26 37 4 70 11 73 16 4 5 15 9 26 9
25 0 25 30 -1 37 -11 3 -20 14 -20 24 0 11 -5 19 -11 19 -6 0 -9 7 -6 15 4 8
2 17 -4 20 -5 4 -3 15 6 28 8 12 15 28 15 37 0 13 -1 13 -10 0 -7 -12 -10 -8
-10 15 0 23 3 27 10 15 8 -12 10 -9 10 13 0 32 14 31 -223 17 -112 -7 -174 -7
-185 -1 -16 10 -16 10 1 11 25 0 47 24 47 50 0 17 5 21 28 18 21 -2 27 -8 25
-25 -2 -18 4 -22 36 -28 22 -4 57 -4 78 -1 136 22 148 25 135 38 -6 6 -7 23
-2 41 19 74 39 556 44 1059 l4 327 -77 6 c-93 8 -110 13 -51 15 25 1 54 5 65
10 12 5 -38 9 -132 9 -102 1 -153 -3 -153 -10 0 -5 3 -8 8 -6 4 3 16 1 27 -4
17 -7 17 -8 -7 -8 -18 -1 -28 -6 -28 -16 0 -8 5 -15 11 -15 5 0 8 -4 5 -9 -4
-5 -3 -17 1 -27 6 -16 7 -16 19 1 9 12 20 16 39 11 21 -5 26 -12 26 -39 0 -66
7 -198 10 -202 3 -2 3 -24 1 -49 -4 -42 -5 -44 -27 -36 -22 8 -24 6 -29 -38
-10 -69 -10 -197 -2 -279 8 -75 3 -92 -14 -47 -6 14 -13 23 -17 21 -5 -3 -8
35 -9 84 0 48 3 86 8 83 11 -7 10 20 -2 32 -14 14 -30 174 -30 306 0 64 -5
139 -10 165 l-11 48 -38 -3 c-21 -2 -42 1 -45 7 -7 11 15 15 61 12 11 -1 23 2
26 6 8 13 -73 14 -95 2 -14 -8 -24 -7 -36 3 -16 12 -16 11 0 -7 14 -17 14 -22
2 -33 -21 -19 -48 -7 -41 19 4 16 2 19 -13 14 -11 -3 -28 -2 -38 4 -14 7 -39
6 -83 -3 -35 -7 -57 -15 -49 -19 10 -4 8 -6 -7 -6 -13 -1 -23 -7 -23 -16 0 -8
-6 -15 -14 -15 -8 0 -16 7 -20 15 -3 8 -14 15 -25 15 -11 0 -21 5 -23 12 -6
17 -52 -32 -56 -59 -1 -13 1 -23 6 -23 7 0 8 -64 1 -185 -1 -22 1 -50 5 -63 5
-14 3 -29 -4 -37 -9 -10 -9 -15 -1 -15 12 0 4 -59 -10 -74 -5 -6 -8 -28 -7
-50 l1 -41 7 45 c4 25 8 36 10 25 4 -30 -1 -59 -11 -71 -6 -8 -4 -18 7 -29 16
-16 16 -18 2 -26 -17 -10 -13 -42 11 -87 8 -16 7 -21 -4 -26 -9 -3 -15 -18
-14 -38 1 -30 2 -31 8 -8 9 33 19 15 19 -35 -1 -22 2 -56 6 -75 3 -19 8 -53
11 -74 2 -22 10 -55 16 -73 6 -19 9 -48 5 -64 -3 -15 -1 -95 4 -178 9 -160 24
-211 60 -211 13 0 18 -5 14 -15 -5 -12 3 -15 39 -15 25 0 48 -4 51 -9 8 -12
15 -181 9 -197 -4 -11 -29 -14 -102 -14 -123 0 -141 5 -141 38 0 40 -8 22 -15
-33 -19 -149 -31 -152 -545 -155 -201 -1 -399 -2 -440 -3 -41 -1 -152 0 -247
1 l-172 2 -7 45 c-3 25 -10 48 -15 51 -5 3 -9 15 -9 26 0 20 -1 21 -20 3 -11
-10 -20 -24 -20 -32 0 -7 -3 -13 -7 -14 -5 0 -17 -2 -29 -3 -19 -2 -20 1 -14
31 10 43 27 63 54 63 15 0 22 7 23 20 1 11 11 33 22 49 12 16 30 48 41 72 21
46 79 149 99 178 21 29 131 232 131 241 0 4 4 10 8 12 4 2 21 30 37 63 16 33
32 62 35 65 3 3 19 34 35 70 17 36 33 67 36 70 4 3 15 23 26 45 30 60 106 199
116 210 17 21 86 130 87 138 0 4 18 34 40 66 22 32 40 63 40 68 0 5 8 18 18
29 21 25 49 69 67 110 8 17 21 36 29 44 9 7 16 18 16 24 0 6 15 34 32 61 18
28 43 70 55 95 63 121 112 211 139 251 17 25 43 72 59 105 15 32 31 61 35 64
7 5 41 66 94 169 15 31 31 58 36 61 4 3 20 30 36 60 15 30 30 57 34 60 3 3 18
30 34 60 16 30 35 62 42 70 16 19 54 115 54 137 0 23 -10 10 -25 -34 -8 -21
-18 -37 -24 -36 -6 2 -8 -4 -5 -11 4 -10 0 -14 -13 -12 -10 2 -12 1 -5 -1 15
-6 15 -13 -2 -35 -18 -25 -24 -23 -28 10 -2 22 -8 27 -26 24 -13 -1 -37 6 -53
15 -27 16 -57 10 -30 -6 7 -5 9 -11 4 -14 -5 -3 -17 5 -27 19 -21 27 -36 31
-36 9 0 -8 -7 -15 -15 -15 -8 0 -15 3 -15 8 0 4 -9 13 -21 20 -16 10 -24 10
-35 2 -20 -17 -104 -18 -104 -2 0 9 -7 11 -20 7 -10 -3 -38 -1 -60 5 -36 10
-45 9 -61 -6 -17 -16 -19 -16 -19 -1 0 22 -16 22 -29 0 -9 -16 -11 -16 -28 -2
-11 10 -34 15 -60 14 -24 0 -43 3 -43 7 0 4 -7 8 -15 8 -8 0 -15 -4 -15 -10 0
-5 -7 -10 -15 -10 -8 0 -15 5 -15 10 0 6 -5 10 -11 10 -6 0 -8 -9 -4 -21 6
-19 5 -20 -8 -8 -8 8 -13 17 -10 21 4 7 -57 -1 -66 -8 -2 -2 -10 1 -18 8 -10
8 -17 8 -26 -1 -8 -8 -14 -6 -24 11 -7 13 -12 17 -13 11 0 -16 -36 -17 -45 -2
-5 6 -11 4 -19 -7 -11 -15 -14 -15 -28 0 -19 18 -43 22 -32 5 4 -7 -7 -10 -33
-8 -21 2 -45 -1 -52 -5 -8 -5 -17 -3 -22 5 -7 11 -9 11 -9 1 0 -8 -5 -12 -11
-10 -6 2 -10 8 -9 13 1 14 -61 23 -86 12 -12 -5 -35 -5 -57 1 -28 8 -39 7 -48
-4 -15 -18 -29 -18 -29 1 0 8 -6 12 -12 10 -7 -2 -43 -6 -80 -8 -58 -4 -66 -2
-61 12 5 14 4 15 -8 0 -11 -12 -31 -15 -106 -11 -51 2 -91 8 -88 13 7 11 -40
23 -61 15 -8 -3 -12 -10 -9 -16 4 -6 -7 -10 -27 -10 -25 0 -29 3 -18 10 17 11
14 11 -47 14 -24 0 -43 -2 -43 -5 0 -11 -114 -18 -125 -9 -7 6 -33 6 -63 1
-29 -4 -52 -4 -52 0 0 13 -54 11 -68 -3 -9 -9 -12 -9 -12 0 0 6 -7 9 -15 6 -8
-4 -21 -1 -29 5 -7 6 -16 8 -20 4 -8 -8 -86 -7 -134 2 -29 5 -34 4 -28 -10 4
-12 1 -15 -12 -11 -9 2 -33 8 -52 12 -44 9 -380 12 -386 3 -5 -8 -40 -2 -71
13 -17 8 -26 8 -38 -2 -10 -8 -26 -10 -48 -5 -49 11 -378 14 -414 3z m1317
-1254 c0 -23 -37 -80 -66 -103 -24 -19 -24 -20 -4 -26 28 -9 50 -33 50 -56 0
-11 -24 -43 -53 -72 -67 -67 -88 -109 -80 -166 6 -43 5 -43 -64 -110 -81 -78
-134 -101 -182 -81 -23 9 -38 9 -62 1 -18 -6 -44 -11 -60 -11 -23 0 -29 6 -39
36 -20 60 15 203 68 283 78 116 165 177 241 168 46 -5 46 -4 76 42 50 76 175
144 175 95z m2413 -1601 c47 -3 73 -9 65 -14 -7 -5 -24 -5 -37 -2 -15 4 -22 2
-18 -4 4 -6 28 -13 54 -17 59 -8 70 -14 74 -46 4 -24 1 -25 -60 -32 -93 -10
-94 -14 -8 -21 95 -8 104 -13 80 -39 -17 -19 -27 -20 -146 -16 -70 3 -132 9
-138 15 -12 12 -25 154 -15 178 4 12 14 15 38 10 18 -3 68 -8 111 -12z"/>
<path d="M15340 1934 c-140 -7 -336 -15 -435 -19 -99 -4 -196 -8 -215 -10 -19
-2 -69 -5 -110 -6 -104 -3 115 -14 535 -28 182 -6 384 -14 450 -17 l120 -6 23
46 c12 26 22 49 22 51 0 7 -94 4 -390 -11z"/>
</g>
</svg>
